<svg xmlns="http://www.w3.org/2000/svg" xmlns:xlink="http://www.w3.org/1999/xlink" width="500" zoomAndPan="magnify" viewBox="0 0 375 374.999991" height="500" preserveAspectRatio="xMidYMid meet" version="1.2"><defs><clipPath id="8af1de2e0f"><path d="M 46.078125 150.652344 L 48 150.652344 L 48 224 L 46.078125 224 Z M 46.078125 150.652344 "/></clipPath><clipPath id="71dfa7e052"><path d="M 46.078125 222 L 119.578125 222 L 119.578125 224 L 46.078125 224 Z M 46.078125 222 "/></clipPath><clipPath id="dc165a0f6a"><path d="M 328 151 L 330.234375 151 L 330.234375 224.152344 L 328 224.152344 Z M 328 151 "/></clipPath><clipPath id="d36fac9574"><path d="M 256.921875 151 L 330.234375 151 L 330.234375 153 L 256.921875 153 Z M 256.921875 151 "/></clipPath></defs><g id="dcf02c6090"><rect x="0" width="375" y="0" height="374.999991" style="fill:#ffffff;fill-opacity:1;stroke:none;"/><rect x="0" width="375" y="0" height="374.999991" style="fill:#ffffff;fill-opacity:1;stroke:none;"/><g style="fill:#222222;fill-opacity:1;"><g transform="translate(51.797321, 204.589316)"><path style="stroke:none" d="M 46.890625 -48.640625 C 45.398438 -48.640625 44.019531 -48.253906 42.75 -47.484375 C 41.488281 -46.710938 40.492188 -45.695312 39.765625 -44.4375 C 39.046875 -43.175781 38.6875 -41.773438 38.6875 -40.234375 L 38.6875 -4.625 C 38.6875 -3.457031 39.09375 -2.460938 39.90625 -1.640625 C 40.726562 -0.828125 41.722656 -0.421875 42.890625 -0.421875 L 43.03125 -0.421875 L 43.03125 0 L 26.5 0 L 10.796875 -45.28125 L 10.796875 -8.828125 C 10.796875 -7.335938 11.15625 -5.945312 11.875 -4.65625 C 12.601562 -3.375 13.597656 -2.347656 14.859375 -1.578125 C 16.117188 -0.804688 17.5 -0.421875 19 -0.421875 L 19 0 L 2.109375 0 L 2.109375 -0.421875 C 3.648438 -0.421875 5.035156 -0.804688 6.265625 -1.578125 C 7.503906 -2.347656 8.5 -3.375 9.25 -4.65625 C 10 -5.945312 10.375 -7.335938 10.375 -8.828125 L 10.375 -44.4375 C 10.375 -45.601562 9.960938 -46.59375 9.140625 -47.40625 C 8.328125 -48.226562 7.335938 -48.640625 6.171875 -48.640625 L 5.953125 -48.640625 L 5.953125 -49.0625 L 22.5625 -49.0625 L 38.265625 -3.78125 L 38.265625 -40.234375 C 38.265625 -41.773438 37.890625 -43.175781 37.140625 -44.4375 C 36.398438 -45.695312 35.410156 -46.710938 34.171875 -47.484375 C 32.929688 -48.253906 31.539062 -48.640625 30 -48.640625 L 30 -49.0625 L 46.890625 -49.0625 Z M 46.890625 -48.640625 "/></g></g><g style="fill:#222222;fill-opacity:1;"><g transform="translate(95.102963, 204.589316)"><path style="stroke:none" d="M 24.109375 -24.390625 C 24.710938 -23.921875 25.34375 -23.007812 26 -21.65625 C 26.65625 -20.300781 27.320312 -18.703125 28 -16.859375 C 28.675781 -15.015625 29.375 -13.132812 30.09375 -11.21875 C 30.820312 -9.300781 31.582031 -7.507812 32.375 -5.84375 C 33.175781 -4.1875 34.019531 -2.894531 34.90625 -1.96875 C 35.84375 -0.9375 36.960938 -0.421875 38.265625 -0.421875 L 38.265625 0 L 25.515625 0 C 24.953125 0 24.4375 -0.207031 23.96875 -0.625 C 23.5 -1.050781 23.007812 -1.773438 22.5 -2.796875 C 21.894531 -4.066406 21.273438 -5.550781 20.640625 -7.25 C 20.015625 -8.957031 19.382812 -10.664062 18.75 -12.375 C 18.113281 -14.082031 17.492188 -15.585938 16.890625 -16.890625 C 16.285156 -18.203125 15.703125 -19.09375 15.140625 -19.5625 C 15.140625 -19.28125 15.140625 -18.457031 15.140625 -17.09375 C 15.140625 -15.738281 15.140625 -14.175781 15.140625 -12.40625 C 15.140625 -10.632812 15.140625 -8.960938 15.140625 -7.390625 C 15.140625 -5.828125 15.140625 -4.648438 15.140625 -3.859375 C 15.140625 -3.015625 15.421875 -2.265625 15.984375 -1.609375 C 16.546875 -0.953125 17.222656 -0.554688 18.015625 -0.421875 L 18.015625 0 L 1.75 0 L 1.75 -0.421875 C 2.539062 -0.554688 3.21875 -0.953125 3.78125 -1.609375 C 4.34375 -2.265625 4.625 -3.015625 4.625 -3.859375 L 4.625 -43.453125 C 4.625 -44.296875 4.34375 -45.046875 3.78125 -45.703125 C 3.21875 -46.359375 2.539062 -46.753906 1.75 -46.890625 L 1.75 -47.3125 L 13.734375 -49.0625 C 13.785156 -49.0625 13.820312 -49.0625 13.84375 -49.0625 C 13.863281 -49.0625 13.898438 -49.0625 13.953125 -49.0625 C 14.742188 -49.0625 15.140625 -48.640625 15.140625 -47.796875 C 15.140625 -41.585938 15.140625 -36.109375 15.140625 -31.359375 C 15.140625 -26.617188 15.140625 -22.828125 15.140625 -19.984375 C 16.265625 -19.984375 17.515625 -20.378906 18.890625 -21.171875 C 20.265625 -21.960938 21.582031 -22.867188 22.84375 -23.890625 C 24.113281 -24.921875 25.117188 -25.789062 25.859375 -26.5 C 26.796875 -27.425781 27.265625 -28.5 27.265625 -29.71875 C 27.265625 -30.84375 26.890625 -31.8125 26.140625 -32.625 C 25.390625 -33.445312 24.476562 -33.90625 23.40625 -34 L 23.40625 -34.421875 L 38.265625 -34.421875 C 38.265625 -34.421875 38.265625 -34.375 38.265625 -34.28125 C 38.265625 -34.1875 38.265625 -34.09375 38.265625 -34 C 36.585938 -33.851562 34.953125 -33.253906 33.359375 -32.203125 C 31.773438 -31.148438 30.222656 -29.910156 28.703125 -28.484375 C 27.179688 -27.066406 25.648438 -25.703125 24.109375 -24.390625 Z M 24.109375 -24.390625 "/></g></g><g style="fill:#222222;fill-opacity:1;"><g transform="translate(129.438654, 204.589316)"><path style="stroke:none" d="M 33.578125 -5.25 C 33.578125 -4.414062 33.851562 -3.671875 34.40625 -3.015625 C 34.96875 -2.359375 35.648438 -1.960938 36.453125 -1.828125 L 36.453125 -1.40625 L 24.46875 0.34375 L 24.25 0.34375 C 23.925781 0.34375 23.644531 0.226562 23.40625 0 C 23.175781 -0.226562 23.0625 -0.507812 23.0625 -0.84375 L 23.0625 -1.890625 C 21.75 -1.234375 20.285156 -0.695312 18.671875 -0.28125 C 17.066406 0.132812 15.445312 0.34375 13.8125 0.34375 C 12.175781 0.34375 10.65625 0.03125 9.25 -0.59375 C 7.851562 -1.226562 6.734375 -2.234375 5.890625 -3.609375 C 5.046875 -4.984375 4.625 -6.863281 4.625 -9.25 L 4.625 -28.8125 C 4.625 -29.695312 4.34375 -30.453125 3.78125 -31.078125 C 3.21875 -31.710938 2.539062 -32.101562 1.75 -32.25 L 1.75 -32.65625 L 13.734375 -34.421875 L 13.953125 -34.421875 C 14.742188 -34.421875 15.140625 -34.019531 15.140625 -33.21875 L 15.140625 -10.234375 C 15.140625 -9.066406 14.832031 -8.117188 14.21875 -7.390625 C 13.613281 -6.671875 13.007812 -6.003906 12.40625 -5.390625 C 11.800781 -4.785156 11.5 -4.039062 11.5 -3.15625 C 11.5 -2.40625 11.953125 -1.804688 12.859375 -1.359375 C 13.773438 -0.921875 14.910156 -0.703125 16.265625 -0.703125 C 18.035156 -0.703125 19.5625 -0.945312 20.84375 -1.4375 C 22.132812 -1.925781 22.875 -2.21875 23.0625 -2.3125 L 23.0625 -28.8125 C 23.0625 -29.695312 22.78125 -30.453125 22.21875 -31.078125 C 21.65625 -31.710938 20.976562 -32.101562 20.1875 -32.25 L 20.1875 -32.65625 L 32.171875 -34.421875 L 32.390625 -34.421875 C 33.179688 -34.421875 33.578125 -34.019531 33.578125 -33.21875 Z M 33.578125 -5.25 "/></g></g><g style="fill:#222222;fill-opacity:1;"><g transform="translate(161.952316, 204.589316)"><path style="stroke:none" d="M 15.140625 -47.796875 L 15.140625 -3.859375 C 15.140625 -3.015625 15.421875 -2.265625 15.984375 -1.609375 C 16.546875 -0.953125 17.222656 -0.554688 18.015625 -0.421875 L 18.015625 0 L 1.75 0 L 1.75 -0.421875 C 2.539062 -0.554688 3.21875 -0.953125 3.78125 -1.609375 C 4.34375 -2.265625 4.625 -3.015625 4.625 -3.859375 L 4.625 -43.453125 C 4.625 -44.296875 4.34375 -45.046875 3.78125 -45.703125 C 3.21875 -46.359375 2.539062 -46.753906 1.75 -46.890625 L 1.75 -47.3125 L 13.734375 -49.0625 C 13.785156 -49.0625 13.820312 -49.0625 13.84375 -49.0625 C 13.863281 -49.0625 13.898438 -49.0625 13.953125 -49.0625 C 14.742188 -49.0625 15.140625 -48.640625 15.140625 -47.796875 Z M 15.140625 -47.796875 "/></g></g><g style="fill:#222222;fill-opacity:1;"><g transform="translate(176.035538, 204.589316)"><path style="stroke:none" d="M 33.578125 -5.25 C 33.578125 -4.414062 33.851562 -3.671875 34.40625 -3.015625 C 34.96875 -2.359375 35.648438 -1.960938 36.453125 -1.828125 L 36.453125 -1.40625 L 24.46875 0.34375 L 24.25 0.34375 C 23.925781 0.34375 23.644531 0.226562 23.40625 0 C 23.175781 -0.226562 23.0625 -0.507812 23.0625 -0.84375 L 23.0625 -1.890625 C 21.75 -1.234375 20.285156 -0.695312 18.671875 -0.28125 C 17.066406 0.132812 15.445312 0.34375 13.8125 0.34375 C 12.175781 0.34375 10.65625 0.03125 9.25 -0.59375 C 7.851562 -1.226562 6.734375 -2.234375 5.890625 -3.609375 C 5.046875 -4.984375 4.625 -6.863281 4.625 -9.25 L 4.625 -28.8125 C 4.625 -29.695312 4.34375 -30.453125 3.78125 -31.078125 C 3.21875 -31.710938 2.539062 -32.101562 1.75 -32.25 L 1.75 -32.65625 L 13.734375 -34.421875 L 13.953125 -34.421875 C 14.742188 -34.421875 15.140625 -34.019531 15.140625 -33.21875 L 15.140625 -10.234375 C 15.140625 -9.066406 14.832031 -8.117188 14.21875 -7.390625 C 13.613281 -6.671875 13.007812 -6.003906 12.40625 -5.390625 C 11.800781 -4.785156 11.5 -4.039062 11.5 -3.15625 C 11.5 -2.40625 11.953125 -1.804688 12.859375 -1.359375 C 13.773438 -0.921875 14.910156 -0.703125 16.265625 -0.703125 C 18.035156 -0.703125 19.5625 -0.945312 20.84375 -1.4375 C 22.132812 -1.925781 22.875 -2.21875 23.0625 -2.3125 L 23.0625 -28.8125 C 23.0625 -29.695312 22.78125 -30.453125 22.21875 -31.078125 C 21.65625 -31.710938 20.976562 -32.101562 20.1875 -32.25 L 20.1875 -32.65625 L 32.171875 -34.421875 L 32.390625 -34.421875 C 33.179688 -34.421875 33.578125 -34.019531 33.578125 -33.21875 Z M 33.578125 -5.25 "/></g></g><g style="fill:#222222;fill-opacity:1;"><g transform="translate(208.5492, 204.589316)"><path style="stroke:none" d="M 15.140625 -47.796875 L 15.140625 -3.859375 C 15.140625 -3.015625 15.421875 -2.265625 15.984375 -1.609375 C 16.546875 -0.953125 17.222656 -0.554688 18.015625 -0.421875 L 18.015625 0 L 1.75 0 L 1.75 -0.421875 C 2.539062 -0.554688 3.21875 -0.953125 3.78125 -1.609375 C 4.34375 -2.265625 4.625 -3.015625 4.625 -3.859375 L 4.625 -43.453125 C 4.625 -44.296875 4.34375 -45.046875 3.78125 -45.703125 C 3.21875 -46.359375 2.539062 -46.753906 1.75 -46.890625 L 1.75 -47.3125 L 13.734375 -49.0625 C 13.785156 -49.0625 13.820312 -49.0625 13.84375 -49.0625 C 13.863281 -49.0625 13.898438 -49.0625 13.953125 -49.0625 C 14.742188 -49.0625 15.140625 -48.640625 15.140625 -47.796875 Z M 15.140625 -47.796875 "/></g></g><g style="fill:#222222;fill-opacity:1;"><g transform="translate(222.632422, 204.589316)"><path style="stroke:none" d="M 24.390625 -4.484375 C 25.742188 -4.484375 27.039062 -4.8125 28.28125 -5.46875 C 29.519531 -6.125 30.628906 -7.035156 31.609375 -8.203125 L 31.96875 -7.984375 C 30.5625 -5.460938 28.664062 -3.441406 26.28125 -1.921875 C 23.894531 -0.410156 21.28125 0.34375 18.4375 0.34375 C 15.488281 0.34375 12.8125 -0.445312 10.40625 -2.03125 C 8 -3.625 6.070312 -5.765625 4.625 -8.453125 C 3.175781 -11.140625 2.453125 -14.117188 2.453125 -17.390625 C 2.453125 -20.660156 3.175781 -23.632812 4.625 -26.3125 C 6.070312 -29 8 -31.132812 10.40625 -32.71875 C 12.8125 -34.3125 15.488281 -35.109375 18.4375 -35.109375 C 21.007812 -35.109375 23.3125 -34.5 25.34375 -33.28125 C 27.375 -32.070312 29.078125 -30.425781 30.453125 -28.34375 C 31.835938 -26.269531 32.785156 -23.898438 33.296875 -21.234375 L 12.96875 -21.234375 C 12.96875 -18.148438 13.476562 -15.332031 14.5 -12.78125 C 15.53125 -10.238281 16.910156 -8.21875 18.640625 -6.71875 C 20.367188 -5.226562 22.285156 -4.484375 24.390625 -4.484375 Z M 18.4375 -34.703125 C 17.457031 -34.703125 16.648438 -34.335938 16.015625 -33.609375 C 15.378906 -32.890625 14.851562 -31.957031 14.4375 -30.8125 C 14.019531 -29.664062 13.71875 -28.484375 13.53125 -27.265625 C 13.34375 -26.046875 13.203125 -24.921875 13.109375 -23.890625 C 13.015625 -22.867188 12.96875 -22.125 12.96875 -21.65625 L 23.765625 -21.65625 C 23.335938 -30.351562 21.5625 -34.703125 18.4375 -34.703125 Z M 18.4375 -34.703125 "/></g></g><g style="fill:#222222;fill-opacity:1;"><g transform="translate(251.992581, 204.589316)"><path style="stroke:none" d="M 24.109375 -24.390625 C 24.710938 -23.921875 25.34375 -23.007812 26 -21.65625 C 26.65625 -20.300781 27.320312 -18.703125 28 -16.859375 C 28.675781 -15.015625 29.375 -13.132812 30.09375 -11.21875 C 30.820312 -9.300781 31.582031 -7.507812 32.375 -5.84375 C 33.175781 -4.1875 34.019531 -2.894531 34.90625 -1.96875 C 35.84375 -0.9375 36.960938 -0.421875 38.265625 -0.421875 L 38.265625 0 L 25.515625 0 C 24.953125 0 24.4375 -0.207031 23.96875 -0.625 C 23.5 -1.050781 23.007812 -1.773438 22.5 -2.796875 C 21.894531 -4.066406 21.273438 -5.550781 20.640625 -7.25 C 20.015625 -8.957031 19.382812 -10.664062 18.75 -12.375 C 18.113281 -14.082031 17.492188 -15.585938 16.890625 -16.890625 C 16.285156 -18.203125 15.703125 -19.09375 15.140625 -19.5625 C 15.140625 -19.28125 15.140625 -18.457031 15.140625 -17.09375 C 15.140625 -15.738281 15.140625 -14.175781 15.140625 -12.40625 C 15.140625 -10.632812 15.140625 -8.960938 15.140625 -7.390625 C 15.140625 -5.828125 15.140625 -4.648438 15.140625 -3.859375 C 15.140625 -3.015625 15.421875 -2.265625 15.984375 -1.609375 C 16.546875 -0.953125 17.222656 -0.554688 18.015625 -0.421875 L 18.015625 0 L 1.75 0 L 1.75 -0.421875 C 2.539062 -0.554688 3.21875 -0.953125 3.78125 -1.609375 C 4.34375 -2.265625 4.625 -3.015625 4.625 -3.859375 L 4.625 -43.453125 C 4.625 -44.296875 4.34375 -45.046875 3.78125 -45.703125 C 3.21875 -46.359375 2.539062 -46.753906 1.75 -46.890625 L 1.75 -47.3125 L 13.734375 -49.0625 C 13.785156 -49.0625 13.820312 -49.0625 13.84375 -49.0625 C 13.863281 -49.0625 13.898438 -49.0625 13.953125 -49.0625 C 14.742188 -49.0625 15.140625 -48.640625 15.140625 -47.796875 C 15.140625 -41.585938 15.140625 -36.109375 15.140625 -31.359375 C 15.140625 -26.617188 15.140625 -22.828125 15.140625 -19.984375 C 16.265625 -19.984375 17.515625 -20.378906 18.890625 -21.171875 C 20.265625 -21.960938 21.582031 -22.867188 22.84375 -23.890625 C 24.113281 -24.921875 25.117188 -25.789062 25.859375 -26.5 C 26.796875 -27.425781 27.265625 -28.5 27.265625 -29.71875 C 27.265625 -30.84375 26.890625 -31.8125 26.140625 -32.625 C 25.390625 -33.445312 24.476562 -33.90625 23.40625 -34 L 23.40625 -34.421875 L 38.265625 -34.421875 C 38.265625 -34.421875 38.265625 -34.375 38.265625 -34.28125 C 38.265625 -34.1875 38.265625 -34.09375 38.265625 -34 C 36.585938 -33.851562 34.953125 -33.253906 33.359375 -32.203125 C 31.773438 -31.148438 30.222656 -29.910156 28.703125 -28.484375 C 27.179688 -27.066406 25.648438 -25.703125 24.109375 -24.390625 Z M 24.109375 -24.390625 "/></g></g><g style="fill:#222222;fill-opacity:1;"><g transform="translate(286.328271, 204.589316)"><path style="stroke:none" d="M 18.4375 -35.109375 C 21.375 -35.109375 24.046875 -34.3125 26.453125 -32.71875 C 28.859375 -31.132812 30.785156 -29 32.234375 -26.3125 C 33.691406 -23.632812 34.421875 -20.660156 34.421875 -17.390625 C 34.421875 -14.117188 33.691406 -11.140625 32.234375 -8.453125 C 30.785156 -5.765625 28.859375 -3.625 26.453125 -2.03125 C 24.046875 -0.445312 21.375 0.34375 18.4375 0.34375 C 15.488281 0.34375 12.8125 -0.445312 10.40625 -2.03125 C 8 -3.625 6.070312 -5.765625 4.625 -8.453125 C 3.175781 -11.140625 2.453125 -14.117188 2.453125 -17.390625 C 2.453125 -20.660156 3.175781 -23.632812 4.625 -26.3125 C 6.070312 -29 8 -31.132812 10.40625 -32.71875 C 12.8125 -34.3125 15.488281 -35.109375 18.4375 -35.109375 Z M 18.4375 -0.0625 C 22.03125 -0.0625 23.828125 -5.835938 23.828125 -17.390625 C 23.828125 -28.929688 22.03125 -34.703125 18.4375 -34.703125 C 14.789062 -34.703125 12.96875 -28.929688 12.96875 -17.390625 C 12.96875 -5.835938 14.789062 -0.0625 18.4375 -0.0625 Z M 18.4375 -0.0625 "/></g></g><g style="fill:#000000;fill-opacity:1;"><g transform="translate(253.915118, 221.998691)"><path style="stroke:none" d="M 1.53125 -0.65625 L 5.421875 -0.65625 L 5.421875 0 L 0.25 0 L 4.3125 -6.203125 L 0.46875 -6.203125 L 0.46875 -6.859375 L 5.59375 -6.859375 Z M 1.53125 -0.65625 "/></g></g><g style="fill:#000000;fill-opacity:1;"><g transform="translate(263.807743, 221.998691)"><path style="stroke:none" d="M 1.46875 0 L 0.75 0 L 0.75 -6.859375 L 1.46875 -6.859375 Z M 1.46875 0 "/></g></g><g style="fill:#000000;fill-opacity:1;"><g transform="translate(270.07003, 221.998691)"><path style="stroke:none" d="M 1.46875 0 L 0.75 0 L 0.75 -6.859375 L 1.46875 -6.859375 L 1.46875 -3.640625 L 3.765625 -6.859375 L 4.671875 -6.859375 L 2.15625 -3.421875 L 4.671875 0 L 3.765625 0 L 1.46875 -3.21875 Z M 1.46875 0 "/></g></g><g style="fill:#000000;fill-opacity:1;"><g transform="translate(278.893717, 221.998691)"><path style="stroke:none" d="M 6.796875 -3.453125 C 6.796875 -4.222656 6.519531 -4.882812 5.96875 -5.4375 C 5.414062 -5.988281 4.75 -6.265625 3.96875 -6.265625 C 3.195312 -6.265625 2.535156 -5.988281 1.984375 -5.4375 C 1.429688 -4.882812 1.15625 -4.222656 1.15625 -3.453125 C 1.15625 -2.671875 1.429688 -2.003906 1.984375 -1.453125 C 2.535156 -0.898438 3.195312 -0.625 3.96875 -0.625 C 4.75 -0.625 5.414062 -0.898438 5.96875 -1.453125 C 6.519531 -2.003906 6.796875 -2.671875 6.796875 -3.453125 Z M 7.5 -3.453125 C 7.5 -2.960938 7.40625 -2.503906 7.21875 -2.078125 C 7.03125 -1.648438 6.78125 -1.273438 6.46875 -0.953125 C 6.144531 -0.628906 5.769531 -0.378906 5.34375 -0.203125 C 4.914062 -0.015625 4.457031 0.078125 3.96875 0.078125 C 3.488281 0.078125 3.035156 -0.015625 2.609375 -0.203125 C 2.179688 -0.378906 1.804688 -0.628906 1.484375 -0.953125 C 1.171875 -1.273438 0.921875 -1.648438 0.734375 -2.078125 C 0.546875 -2.503906 0.453125 -2.960938 0.453125 -3.453125 C 0.453125 -3.929688 0.546875 -4.382812 0.734375 -4.8125 C 0.921875 -5.25 1.171875 -5.625 1.484375 -5.9375 C 1.804688 -6.25 2.179688 -6.5 2.609375 -6.6875 C 3.035156 -6.875 3.488281 -6.96875 3.96875 -6.96875 C 4.457031 -6.96875 4.914062 -6.875 5.34375 -6.6875 C 5.769531 -6.5 6.144531 -6.25 6.46875 -5.9375 C 6.78125 -5.625 7.03125 -5.25 7.21875 -4.8125 C 7.40625 -4.382812 7.5 -3.929688 7.5 -3.453125 Z M 7.5 -3.453125 "/></g></g><g style="fill:#000000;fill-opacity:1;"><g transform="translate(290.893946, 221.998691)"><path style="stroke:none" d="M 6.078125 -3.421875 C 6.078125 -2.929688 5.988281 -2.476562 5.8125 -2.0625 C 5.613281 -1.632812 5.359375 -1.269531 5.046875 -0.96875 C 4.734375 -0.664062 4.363281 -0.429688 3.9375 -0.265625 C 3.5 -0.0859375 3.035156 0 2.546875 0 L 0.75 0 L 0.75 -6.859375 L 2.546875 -6.859375 C 3.035156 -6.859375 3.5 -6.769531 3.9375 -6.59375 C 4.363281 -6.425781 4.734375 -6.191406 5.046875 -5.890625 C 5.359375 -5.585938 5.613281 -5.226562 5.8125 -4.8125 C 5.988281 -4.382812 6.078125 -3.921875 6.078125 -3.421875 Z M 5.390625 -3.421875 C 5.390625 -4.203125 5.113281 -4.851562 4.5625 -5.375 C 4.03125 -5.882812 3.363281 -6.140625 2.5625 -6.140625 L 1.46875 -6.140625 L 1.46875 -0.703125 L 2.5625 -0.703125 C 3.363281 -0.703125 4.03125 -0.957031 4.5625 -1.46875 C 5.113281 -1.988281 5.390625 -2.640625 5.390625 -3.421875 Z M 5.390625 -3.421875 "/></g></g><g style="fill:#000000;fill-opacity:1;"><g transform="translate(301.472303, 221.998691)"><path style="stroke:none" d="M 4.828125 0 L 0.75 0 L 0.75 -6.859375 L 4.828125 -6.859375 L 4.828125 -6.203125 L 1.46875 -6.203125 L 1.46875 -3.765625 L 4.734375 -3.765625 L 4.734375 -3.09375 L 1.46875 -3.09375 L 1.46875 -0.65625 L 4.828125 -0.65625 Z M 4.828125 0 "/></g></g><g clip-rule="nonzero" clip-path="url(#8af1de2e0f)"><path style=" stroke:none;fill-rule:nonzero;fill:#231f20;fill-opacity:1;" d="M 46.316406 223.269531 L 46.96875 150.652344 L 47.625 223.269531 C 47.613281 224.128906 46.332031 224.148438 46.316406 223.269531 Z M 46.316406 223.269531 "/></g><g clip-rule="nonzero" clip-path="url(#71dfa7e052)"><path style=" stroke:none;fill-rule:nonzero;fill:#231f20;fill-opacity:1;" d="M 46.96875 222.613281 C 46.96875 222.613281 119.585938 223.269531 119.585938 223.269531 C 119.585938 223.269531 46.96875 223.925781 46.96875 223.925781 C 46.109375 223.914062 46.089844 222.628906 46.96875 222.613281 Z M 46.96875 222.613281 "/></g><g clip-rule="nonzero" clip-path="url(#dc165a0f6a)"><path style=" stroke:none;fill-rule:nonzero;fill:#231f20;fill-opacity:1;" d="M 330.1875 151.722656 L 329.535156 224.339844 L 328.878906 151.722656 C 328.890625 150.859375 330.171875 150.839844 330.1875 151.722656 Z M 330.1875 151.722656 "/></g><g clip-rule="nonzero" clip-path="url(#d36fac9574)"><path style=" stroke:none;fill-rule:nonzero;fill:#231f20;fill-opacity:1;" d="M 329.535156 152.375 C 329.535156 152.375 256.914062 151.722656 256.914062 151.722656 C 256.914062 151.722656 329.535156 151.066406 329.535156 151.066406 C 330.394531 151.078125 330.414062 152.359375 329.535156 152.375 Z M 329.535156 152.375 "/></g></g></svg>